<svg xmlns="http://www.w3.org/2000/svg" viewBox="0 0 511.424 511.424"><g fill="#acb3ba"><path d="M255.936 321.504c-.128.128-.224.128-.224.128v-.245c.096-.01.224.117.224.117"/><path d="M255.936 321.387v.224s-.128 0-.224-.107c0 0 .096-.117.224-.117"/></g><path d="M186.38 283.317c.853 1.163.736 1.163-.117 0h.117zm-.13-134.122c1.58 17.856-7.104 33.227-19.36 34.293-12.256 1.077-23.467-12.544-25.024-30.42-1.568-17.867 7.104-33.227 19.36-34.293 12.266-1.078 23.456 12.543 25.024 30.42m183.53 3.872c-1.568 17.877-12.757 31.5-25.035 30.42-12.245-1.067-20.94-16.427-19.35-34.293 1.557-17.877 12.757-31.488 25.024-30.42 12.256 1.066 20.928 16.437 19.36 34.293" fill="#f8b64c"/><path d="M446.475 326.965l-121.13-43.627s-.78.96-.78.853c-17.067 23.125-42.86 34.54-68.768 34.55h-.042c-25.824-.01-51.627-11.424-68.79-34.55l-.66-.832-.043-.02L64.94 326.965c-37.867 13.547-63.253 49.59-63.253 89.92v94.54H509.74v-94.54c0-40.33-25.387-76.384-63.264-89.92" fill="#acb3ba"/><path d="M255.82 0C198.89 0 152.736 46.144 152.736 103.083v30.933a189.89 189.89 0 0 0 1.472 23.616v.032a193.88 193.88 0 0 0 49.355 107.339l9.77 10.72a47.35 47.35 0 0 0 34.997 15.445h14.933c13.312 0 26.005-5.59 34.997-15.424l9.813-10.74c27.21-29.77 44.46-67.34 49.397-107.36.98-7.86 1.43-15.712 1.43-23.616v-30.933C358.9 46.155 312.747 0 255.82 0" fill="#ffd15c"/><path d="M345.58 290.613c-.33 1.077-.747 2.133-1.29 3.093-.31.747-.736 1.387-1.163 2.016-1.173 1.93-29.76 45.227-87.467 45.227-57.28 0-86.187-43.307-87.36-45.11-1.067-1.707-1.92-3.413-2.347-5.227l20.267-7.264v-40.31h.107c5.227 7.69 10.89 15.04 17.28 21.984l9.707 10.667c8.96 9.92 21.643 15.456 34.976 15.456h14.933c13.333 0 26.016-5.547 34.987-15.35l9.813-10.773c6.41-6.933 12.053-14.293 17.28-21.984v40.31l20.278 7.263z" fill="#f8b64c"/><path d="M381.62 303.627c-1.067 2.133-2.123 3.84-3.083 5.227-6.933 10.357-46.293 64.107-122.89 64.107-79.147 0-118.923-58.016-123.2-64.64-.96-1.59-1.92-3.2-2.667-4.693l36.17-13.013c.416 1.813 1.27 3.52 2.336 5.227 1.173 1.813 30.08 45.11 87.36 45.11 57.707 0 86.304-43.307 87.467-45.227.427-.64.853-1.27 1.163-2.016.544-.96.96-2.016 1.29-3.093l36.053 13.012z" fill="#f2f2f2"/><path d="M325.312 243.06c-5.205 7.67-10.923 15.03-17.237 21.94l-9.803 10.74c-9.003 9.835-21.685 15.424-35.008 15.424H248.34c-12.352 0-24.043-5.003-32.853-13.557h-.02l66.432 60.096c40.14-10.037 60.256-40.373 61.237-41.973.427-.64.853-1.28 1.163-2.027.544-.96.96-2.016 1.29-3.083l-20.267-7.264-.01-40.3z" fill="#40596b" opacity=".1"/><path d="M106.827 511.424H82.72l24.107-86.86zm297.77 0h24.107l-24.107-86.86z" fill="#97a1aa"/><path d="M358.496 150.54l-16.907 63.627-23.307 25.365c-2.624-7.157-8.63-13.227-15.936-18.293-27.733-19.22-65.42-19.232-93.12.02-7.275 5.067-13.248 11.125-15.872 18.272l-22.976-24.64-17.227-64.352 3.712 38.74c6.176 36.704 28.704 101.557 62.293 117.62 11.06 5.3 23.403 8.864 36.64 8.864 13.312 0 25.653-3.563 36.715-8.864 33.568-16.064 56.107-80.917 62.293-117.62l3.692-38.74zm-63.723 116.5s-8.395 14.976-23.36 0c0 0-7.797-8.98-15.584-9.568-7.776.597-15.584 9.568-15.584 9.568-14.976 14.976-23.36 0-23.36 0-3.456-7.093-3.936-12.693-2.912-17.056 1.9-8.128 9.75-13.27 18.037-12.544 15.168 1.355 23.82-8.736 23.82-8.736s8.66 10.1 23.82 8.736c8.288-.725 16.15 4.416 18.027 12.544 1.034 4.362.554 9.962-2.902 17.056m18.89-144.447H288.94c-12.192 0-22.443 7.85-26.25 18.74-2.475-.437-5.003-.747-7.563-.747-2.1 0-4.17.3-6.208.62-3.85-10.827-14.07-18.603-26.208-18.603h-24.725c-15.413 0-27.925 12.5-27.925 27.915 0 15.435 12.512 27.957 27.936 27.957H222.7c15.413 0 27.915-12.523 27.915-27.936v-.02c0-.65-.15-1.27-.192-1.92 3.584-.5 7.2-.5 10.752.128-.032.608-.18 1.173-.18 1.792 0 15.435 12.512 27.957 27.947 27.957h24.704c15.413 0 27.925-12.523 27.925-27.936v-.02c.01-15.424-12.503-27.925-27.916-27.925m-90.976 47.882h-24.693c-10.987 0-19.936-8.96-19.936-19.936 0-10.987 8.95-19.936 19.925-19.936h24.704c10.997 0 19.936 8.95 19.936 19.936 0 10.976-8.94 19.936-19.936 19.936m90.976 0H288.96c-10.997 0-19.947-8.96-19.947-19.936 0-10.987 8.94-19.936 19.925-19.936h24.725c10.976 0 19.915 8.95 19.915 19.936.001 10.976-8.938 19.936-19.914 19.936" fill="#40596b"/></svg>